{
	"asset":{
		"generator":"Khronos glTF Blender I/O v5.0.21",
		"version":"2.0"
	},
	"scene":0,
	"scenes":[
		{
			"name":"Scene",
			"nodes":[
				0
			]
		}
	],
	"nodes":[
		{
			"mesh":0,
			"name":"Sphere.002_Material.001_0"
		}
	],
	"materials":[
		{
			"doubleSided":true,
			"name":"Material.001",
			"pbrMetallicRoughness":{
				"baseColorFactor":[
					0.651374876499176,
					0.5883869528770447,
					0.5883869528770447,
					1
				],
				"metallicFactor":0,
				"roughnessFactor":0.9466664791107178
			}
		}
	],
	"meshes":[
		{
			"name":"Sphere.002_Material.001_0",
			"primitives":[
				{
					"attributes":{
						"POSITION":0,
						"NORMAL":1,
						"TEXCOORD_0":2
					},
					"indices":3,
					"material":0
				}
			]
		}
	],
	"accessors":[
		{
			"bufferView":0,
			"componentType":5126,
			"count":11385,
			"max":[
				1.462965726852417,
				1.4557182788848877,
				5.058269023895264
			],
			"min":[
				-1.462965726852417,
				-1.4557174444198608,
				-0.005998915061354637
			],
			"type":"VEC3"
		},
		{
			"bufferView":1,
			"componentType":5126,
			"count":11385,
			"type":"VEC3"
		},
		{
			"bufferView":2,
			"componentType":5126,
			"count":11385,
			"type":"VEC2"
		},
		{
			"bufferView":3,
			"componentType":5123,
			"count":61824,
			"type":"SCALAR"
		}
	],
	"bufferViews":[
		{
			"buffer":0,
			"byteLength":136620,
			"byteOffset":0,
			"target":34962
		},
		{
			"buffer":0,
			"byteLength":136620,
			"byteOffset":136620,
			"target":34962
		},
		{
			"buffer":0,
			"byteLength":91080,
			"byteOffset":273240,
			"target":34962
		},
		{
			"buffer":0,
			"byteLength":123648,
			"byteOffset":364320,
			"target":34963
		}
	],
	"buffers":[
		{
			"byteLength":487968,
			"uri":"pawn.bin"
		}
	]
}
